<svg  version="1.0" xmlns="http://www.w3.org/2000/svg"  width="300.000000pt" height="300.000000pt" viewBox="0 0 300.000000 300.000000"  preserveAspectRatio="xMidYMid meet">  <g transform="translate(0.000000,300.000000) scale(0.100000,-0.100000)" fill="#905a82" stroke="none"> <path d="M1228 2453 c-62 -21 -123 -74 -139 -120 -6 -21 -9 -62 -6 -99 5 -73 34 -139 138 -321 l71 -123 -45 -68 c-48 -74 -117 -204 -117 -223 0 -7 22 30 48 82 26 52 65 120 86 151 l38 57 -70 123 c-108 189 -134 249 -140 327 -8 113 35 173 150 206 68 19 113 11 176 -34 100 -73 160 -206 148 -331 -10 -111 -50 -217 -104 -272 l-46 -47 -17 28 c-10 16 -22 32 -27 35 -23 14 -151 -215 -217 -389 -48 -123 -59 -138 -52 -65 5 54 5 54 -5 13 -9 -34 -17 -44 -51 -59 -45 -20 -76 -75 -77 -132 0 -38 15 -47 55 -32 15 6 29 9 31 7 9 -8 -30 -103 -47 -119 -45 -39 -80 -169 -55 -203 12 -16 16 -17 30 -6 15 13 81 170 73 177 -2 2 -18 -35 -36 -82 -34 -88 -54 -103 -58 -44 -4 49 15 109 44 138 22 22 63 116 63 145 0 9 -19 7 -67 -8 -20 -6 -23 -4 -23 17 0 49 43 139 58 123 3 -3 13 2 23 11 10 9 23 13 30 9 8 -6 3 -12 -15 -22 -14 -8 -31 -11 -36 -8 -6 3 -10 1 -10 -4 0 -15 14 -14 54 5 30 15 39 28 67 103 71 188 196 417 223 408 6 -2 15 -17 21 -33 5 -16 10 -30 11 -32 1 -2 23 19 48 46 26 27 66 63 89 78 23 16 44 32 47 35 15 19 114 59 141 57 68 -5 83 -125 35 -298 -29 -106 -30 -114 -16 -105 6 4 7 11 4 17 -5 8 -1 9 11 4 15 -5 16 -4 6 8 -9 11 -6 35 14 112 14 54 25 118 25 142 0 63 -44 142 -79 142 -26 0 -113 -44 -165 -85 -34 -26 -47 -32 -42 -19 58 152 68 275 28 374 -29 73 -108 161 -174 194 -59 30 -84 31 -150 9z"/> <path d="M1120 2343 c0 -12 77 -133 85 -133 7 0 6 2 -47 84 -21 33 -38 55 -38 49z"/> <path d="M1314 2341 c-11 -5 -34 -25 -52 -45 -61 -70 -56 -154 19 -301 80 -157 72 -153 119 -52 53 113 83 228 74 286 -12 80 -96 139 -160 112z m114 -35 c60 -59 41 -212 -48 -385 -21 -41 -22 -42 -36 -23 -7 11 -34 60 -59 109 -47 94 -62 157 -51 217 8 39 48 93 80 107 31 13 88 1 114 -25z"/> <path d="M1921 1975 c-5 -19 -22 -105 -37 -192 -28 -155 -29 -156 -61 -176 -45 -26 -42 -32 5 -8 l38 20 24 135 c12 75 26 136 31 136 5 0 6 6 3 13 -2 7 -1 31 4 52 9 39 9 39 19 15 8 -19 6 -59 -8 -150 -11 -69 -18 -132 -16 -140 2 -8 13 47 25 124 18 111 21 145 12 172 -15 43 -27 43 -39 -1z"/> <path d="M1390 1886 c0 -2 11 -24 25 -47 30 -53 33 -44 5 11 -18 35 -30 49 -30 36z"/> <path d="M1657 1849 c-53 -35 -197 -184 -197 -204 0 -7 7 -15 15 -17 10 -2 -2 -23 -40 -71 -34 -41 -55 -77 -55 -92 0 -28 8 -30 45 -13 14 6 27 9 30 6 3 -2 0 -31 -7 -62 -10 -51 -15 -60 -45 -74 -31 -15 -33 -19 -33 -64 0 -35 6 -55 20 -70 10 -12 17 -25 14 -30 -9 -14 -22 -9 -27 10 -3 13 -4 12 -3 -3 2 -31 32 -24 61 14 37 51 30 17 -13 -64 -30 -57 -42 -71 -64 -73 -44 -5 -60 31 -56 127 3 81 -8 115 -14 44 -6 -74 7 -154 27 -169 24 -18 59 -18 75 0 9 12 18 13 38 5 42 -16 145 -13 201 6 61 20 68 28 47 59 -13 20 -13 34 -4 91 l11 66 35 -65 c19 -36 38 -66 43 -66 4 0 20 20 34 44 33 56 35 125 7 190 -20 45 -20 46 -2 56 28 15 30 13 30 -30 0 -59 20 -141 36 -147 8 -3 22 1 30 8 15 12 16 10 10 -21 -6 -34 -6 -35 4 -5 30 88 32 96 20 110 -7 8 -15 44 -17 79 l-6 64 39 12 c22 7 42 15 46 19 8 7 38 154 33 159 -1 2 -27 -4 -56 -12 l-54 -16 48 6 c26 3 47 2 47 -2 0 -4 -5 -35 -11 -69 -10 -60 -11 -61 -52 -76 -42 -14 -42 -14 -45 -69 -3 -38 2 -65 14 -88 17 -31 17 -34 -2 -59 -11 -15 -25 -28 -31 -30 -21 -7 -36 42 -37 119 -1 43 -3 78 -5 78 -2 0 -37 -19 -77 -42 -64 -36 -75 -46 -80 -75 -4 -19 -4 -37 0 -40 3 -4 6 4 6 16 0 33 17 59 50 76 28 15 30 14 47 -12 11 -16 19 -51 21 -92 3 -56 -1 -72 -21 -105 l-24 -39 -26 44 c-14 24 -31 56 -38 72 -7 15 -15 27 -19 27 -4 0 -11 -28 -16 -62 -8 -53 -12 -63 -29 -63 -19 0 -20 6 -17 82 l2 81 -28 -10 c-46 -18 -64 -5 -60 44 2 32 9 45 29 57 90 54 109 75 130 144 11 38 18 71 15 75 -3 3 -6 0 -6 -6 0 -8 -20 -12 -52 -13 -64 -1 -108 -12 -91 -22 6 -4 19 -30 28 -58 9 -28 19 -48 21 -46 3 3 -4 27 -14 55 -23 59 -20 62 55 62 42 0 45 -2 39 -22 -4 -13 -9 -36 -13 -51 -6 -29 -46 -67 -70 -67 -8 0 -11 -5 -8 -10 4 -6 -9 -17 -29 -25 -19 -8 -38 -20 -42 -26 -4 -8 -9 -7 -15 2 -6 10 -13 8 -30 -11 l-22 -25 7 48 c8 52 2 56 -48 37 -49 -18 -31 19 71 149 2 3 9 -3 16 -12 9 -13 16 -14 27 -6 13 9 12 10 -3 5 -13 -4 -19 1 -23 23 -5 21 -11 28 -21 24 -27 -11 1 28 77 105 161 163 208 156 165 -27 -9 -35 -14 -66 -11 -68 3 -3 27 89 41 163 5 23 -20 64 -39 64 -7 0 -33 -14 -59 -31z m-139 -490 c5 -48 20 -62 59 -56 30 5 33 3 33 -19 0 -28 -8 -30 -27 -6 -12 15 -13 14 -2 -8 7 -14 15 -43 18 -65 4 -28 12 -43 27 -49 20 -9 61 -63 52 -70 -1 -2 -24 -11 -50 -21 -34 -13 -68 -16 -127 -14 -43 2 -82 7 -86 11 -3 3 7 33 24 67 17 33 31 68 31 77 0 12 6 10 31 -10 17 -14 34 -26 39 -26 5 0 21 -5 35 -10 23 -9 25 -13 14 -26 -13 -16 -53 -16 -119 1 -21 5 -22 5 -8 -5 10 -6 40 -13 66 -17 38 -4 52 -2 65 12 23 22 10 38 -41 53 -48 15 -80 48 -97 103 -8 24 -14 35 -14 24 0 -11 5 -33 12 -49 11 -26 10 -31 -13 -56 l-25 -27 -17 23 c-11 13 -18 39 -18 63 0 35 4 43 33 58 17 9 36 16 41 15 4 -2 6 10 3 25 -4 15 -4 22 -1 15 5 -10 10 -8 21 8 20 29 37 20 41 -21z"/> <path d="M1408 1223 c7 -3 16 -2 19 1 4 3 -2 6 -13 5 -11 0 -14 -3 -6 -6z"/> <path d="M1272 1598 c-62 -127 -106 -237 -98 -245 2 -2 35 9 72 25 67 28 69 30 75 70 3 23 2 42 -3 42 -4 0 -8 -18 -8 -39 0 -27 -5 -41 -16 -45 -27 -10 -28 0 -4 59 13 33 26 52 30 45 9 -15 23 151 14 173 -3 10 -1 17 5 17 6 0 11 5 11 10 0 33 -26 -5 -78 -112z m53 16 c-4 -40 -18 -91 -36 -128 -16 -33 -29 -68 -29 -77 0 -9 -16 -22 -39 -31 l-40 -16 20 52 c39 97 118 266 126 266 3 0 2 -30 -2 -66z"/> <path d="M1116 1465 c-3 -9 -6 -22 -5 -28 0 -7 5 -1 10 12 5 13 8 26 5 28 -2 2 -6 -3 -10 -12z"/> <path d="M1208 1236 c-43 -18 -82 -36 -87 -41 -13 -15 -64 -155 -58 -161 3 -3 13 19 22 48 23 69 30 75 45 39 17 -42 92 -108 154 -137 117 -53 225 -55 364 -6 l81 29 28 -61 c36 -80 40 -189 7 -232 -26 -36 -62 -61 -96 -70 l-28 -6 15 36 c20 47 19 69 -5 116 -24 48 -65 70 -126 72 -52 1 -86 -19 -121 -72 -28 -40 -29 -81 -4 -136 36 -79 97 -116 193 -115 129 0 225 56 272 156 39 82 28 201 -31 319 l-25 48 30 32 c16 17 37 45 46 63 25 51 18 53 -10 3 -14 -25 -37 -57 -50 -71 l-26 -27 23 -43 c30 -59 59 -165 59 -215 0 -135 -106 -241 -251 -252 -88 -6 -131 3 -170 35 -36 31 -68 95 -69 136 -1 104 140 168 220 101 17 -15 29 -29 26 -31 -3 -3 1 -12 9 -20 20 -20 19 -62 -4 -106 -18 -36 -18 -37 -1 -37 53 0 122 51 146 107 8 18 14 51 14 73 0 43 -31 148 -56 185 l-14 22 -83 -30 c-107 -40 -239 -43 -328 -8 -78 30 -134 73 -170 129 -42 66 -36 80 40 108 35 13 65 23 67 21 2 -1 7 -14 13 -27 5 -14 10 -18 10 -10 0 8 -4 22 -9 30 -7 11 -3 18 13 27 38 21 5 12 -75 -21z"/> <path d="M1810 1164 c0 -5 7 -19 15 -30 8 -10 15 -14 15 -8 0 5 -7 19 -15 30 -8 10 -15 14 -15 8z"/> <path d="M1640 1022 c6 -13 14 -21 18 -18 3 4 -2 14 -12 24 -18 16 -18 16 -6 -6z"/> </g> </svg> 